<?xml version="1.0" encoding="UTF-8" standalone="no"?>
<!-- Generator: Adobe Illustrator 15.1.0, SVG Export Plug-In . SVG Version: 6.00 Build 0)  -->

<svg
   xmlns:dc="http://purl.org/dc/elements/1.1/"
   xmlns:cc="http://creativecommons.org/ns#"
   xmlns:rdf="http://www.w3.org/1999/02/22-rdf-syntax-ns#"
   xmlns:svg="http://www.w3.org/2000/svg"
   xmlns="http://www.w3.org/2000/svg"
   xmlns:sodipodi="http://sodipodi.sourceforge.net/DTD/sodipodi-0.dtd"
   xmlns:inkscape="http://www.inkscape.org/namespaces/inkscape"
   version="1.1"
   id="Layer_1"
   x="0px"
   y="0px"
   width="500"
   height="250"
   viewBox="0 0 500 250"
   enable-background="new 0 0 500 500"
   xml:space="preserve"
   sodipodi:docname="Iniciales.svg"
   inkscape:version="0.92.1 r15371"><metadata
   id="metadata5208"><rdf:RDF><cc:Work
       rdf:about=""><dc:format>image/svg+xml</dc:format><dc:type
         rdf:resource="http://purl.org/dc/dcmitype/StillImage" /><dc:title></dc:title></cc:Work></rdf:RDF></metadata><defs
   id="defs5206" /><sodipodi:namedview
   pagecolor="#ffffff"
   bordercolor="#666666"
   borderopacity="1"
   objecttolerance="10"
   gridtolerance="10"
   guidetolerance="10"
   inkscape:pageopacity="0"
   inkscape:pageshadow="2"
   inkscape:window-width="1920"
   inkscape:window-height="1012"
   id="namedview5204"
   showgrid="false"
   inkscape:zoom="1.642"
   inkscape:cx="250"
   inkscape:cy="250"
   inkscape:window-x="-8"
   inkscape:window-y="-8"
   inkscape:window-maximized="1"
   inkscape:current-layer="Layer_1" />

<path
   d="M 274.767,-153.197"
   id="path5191"
   inkscape:connector-curvature="0"
   style="fill:none;stroke:#010101;stroke-width:0.5;stroke-linecap:round;stroke-linejoin:round" />
<path
   d="M 280.375,-158.803"
   id="path5193"
   inkscape:connector-curvature="0"
   style="fill:none;stroke:#010101;stroke-width:0.5;stroke-linecap:round;stroke-linejoin:round" />
<path
   d="M 280.375,-158.803"
   id="path5195"
   inkscape:connector-curvature="0"
   style="fill:none;stroke:#010101;stroke-width:0.5;stroke-linecap:round;stroke-linejoin:round" />



<text
   xml:space="preserve"
   style="font-style:normal;font-weight:normal;font-size:230.27909851px;line-height:1.25;font-family:sans-serif;letter-spacing:0px;word-spacing:0px;fill:#000000;fill-opacity:1;stroke:none;stroke-width:5.75697756"
   x="12.182867"
   y="208.42773"
   id="text5212"
   transform="scale(0.96086345,1.0407306)"><tspan
     sodipodi:role="line"
     id="tspan5210"
     x="12.182867"
     y="208.42773"
     style="stroke-width:5.75697756">ACC</tspan></text>
<path
   style="fill:#ffff00;fill-opacity:1;stroke-width:0.60901338"
   d="m 62.193943,138.21559 c 8.628781,-26.87716 24.433762,-73.448215 24.795324,-73.062059 0.398089,0.425168 27.322543,81.791009 27.322543,82.568869 0,0.21431 -12.44139,0.38966 -27.647537,0.38966 H 59.016731 Z"
   id="path5214"
   inkscape:connector-curvature="0" /><path
   style="fill:none;stroke:#000000;stroke-width:1px;stroke-linecap:butt;stroke-linejoin:miter;stroke-opacity:1"
   d="M 9.7442144,7.0036541 492.08283,6.3946407 492.69184,243.90986 10.353228,243.30085 Z"
   id="path5227"
   inkscape:connector-curvature="0"
   sodipodi:nodetypes="ccccc" /><path
   style="fill:#ffff00;fill-opacity:1;stroke-width:0.60901338"
   d="M 128.26397,242.6614 11.582754,242.50603 11.181146,228.70636 C 10.960261,221.11654 10.779537,168.40625 10.779537,111.57238 V 8.2380616 L 41.939381,7.8340125 C 59.077295,7.6117855 167.14705,7.4299635 282.09438,7.4299635 h 208.99516 l 0.40505,85.4141295 c 0.22278,46.977767 0.40516,100.007617 0.40529,117.844097 l 2.4e-4,32.42996 -123.47746,-0.15069 c -67.91261,-0.0829 -175.98402,-0.2206 -240.15869,-0.30606 z m 139.51922,-23.38906 c 11.17383,-1.78599 20.83314,-4.93604 33.34348,-10.87383 l 8.06943,-3.82998 v -13.91642 c 0,-16.17899 0.18185,-15.83656 -5.62115,-10.58514 -26.62691,24.09597 -66.26338,26.38418 -87.1569,5.03157 -8.52918,-8.71658 -14.81789,-22.24324 -17.05389,-36.68197 -3.7049,-23.92396 -0.17764,-48.16522 9.37316,-64.417441 3.83326,-6.522899 12.92196,-15.308703 19.18996,-18.550432 8.69965,-4.499344 12.83705,-5.34638 25.8486,-5.291897 10.16565,0.04257 11.85225,0.204131 17.25774,1.65318 10.48541,2.810819 22.44339,9.29139 31.81636,17.242736 6.47768,5.495177 6.34612,5.715494 6.34612,-10.628002 V 54.510817 l -7.76492,-3.692142 C 282.11664,41.634805 264.3339,38.00686 246.58152,39.628522 c -20.69991,1.890915 -35.7512,8.705737 -48.34803,21.890692 -15.19736,15.9069 -23.02034,39.153376 -23.02034,68.406436 0,48.92238 21.18517,80.80074 58.79416,88.47046 10.3709,2.11497 23.83986,2.46439 33.77588,0.87623 z m 154.6894,0 c 11.20628,-1.79118 20.99827,-4.98158 33.34349,-10.8639 l 8.06943,-3.84496 v -13.91389 c 0,-16.17616 0.18176,-15.83396 -5.62116,-10.58262 -19.31325,17.47749 -46.26886,24.05862 -68.37397,16.69331 -18.94201,-6.31138 -31.79562,-23.78957 -36.00026,-48.95273 -2.16535,-12.95884 -1.11517,-34.45746 2.2743,-46.55768 5.70493,-20.366344 18.74952,-34.687782 36.19648,-39.739516 4.30841,-1.247495 6.07019,-1.395571 16.10439,-1.353554 10.16565,0.04257 11.85224,0.204131 17.25774,1.65318 10.4854,2.810819 22.44338,9.29139 31.81635,17.242736 6.47731,5.494866 6.34613,5.714409 6.34613,-10.62014 v -13.90603 l -7.76493,-3.714301 c -23.79821,-11.383728 -47.19244,-14.406252 -68.97961,-8.912134 -36.66671,9.246329 -57.23841,41.009731 -57.23841,88.378029 0,24.41486 5.42856,44.95682 15.9315,60.28563 5.94404,8.67519 15.40962,17.01434 24.56789,21.64426 13.76197,6.95729 34.84516,9.8176 52.07064,7.06431 z m -378.127005,-26.3978 7.728453,-23.75152 34.654927,-0.15719 34.654925,-0.15719 7.85099,24.06096 7.85098,24.06097 h 11.68966 11.68966 L 143.1087,165.31669 C 133.56262,136.92905 120.36904,97.670524 113.78962,78.075518 L 101.82704,42.448234 87.422558,42.285099 73.018076,42.121964 71.710639,45.939179 C 67.050792,59.544188 14.433618,216.33084 14.433618,216.61107 c 0,0.19084 4.991291,0.27229 11.091757,0.18099 l 11.091758,-0.16599 z"
   id="path5229"
   inkscape:connector-curvature="0" /></svg>